# xmcd
# Track frame offsets:
# 150
# 17319
# 36781
# 48508
# 59246
#
# Disc length: 1003 seconds
# Revision: 0
# Processed by: cddbd v1.5.2PL0 Copyright (c) Steve Scherf et al.
# Submitted via: VisiTrax 2.10.2.252 - For more info visit www.synapsa.com
#
DISCID=3c03e905
DTITLE=Ulf, Kent and Henrik - Demo
DYEAR=2006
DGENRE=Blues
TTITLE0=Demo
TTITLE1=Demo
TTITLE2=Demo
TTITLE3=Demo
TTITLE4=Demo
EXTD=
EXTT0=
EXTT1=
EXTT2=
EXTT3=
EXTT4=
PLAYORDER=
